# xmcd CD database file
#
# Track frame offsets:
#	150
#	27005
#	48278
#	73658
#	92057
#	109739
#	126579
#	149390
#	171249
#	190512
#	212990
#	228678
#
# Disc length: 3330 seconds
#
# Revision: 0
# Processed by: cddbd v1.5.2PL0 Copyright (c) Steve Scherf et al.
# Submitted via: CDex 1.70beta2
#
DISCID=af0d000c
DTITLE=Geoff Achison and The Souldiggers - Little Big Men
DYEAR=2005
DGENRE=Blues
TTITLE0=Crazy Horse
TTITLE1=News
TTITLE2=Happening
TTITLE3=Rule The World
TTITLE4=Little Big Men
TTITLE5=Feel Like A King
TTITLE6=Wagging The Dog
TTITLE7=Zombify
TTITLE8=Bit By Bit
TTITLE9=Never Give Up
TTITLE10=Reach For The Sky
TTITLE11=Boy
EXTD=YEAR: 2005
EXTT0=
EXTT1=
EXTT2=
EXTT3=
EXTT4=
EXTT5=
EXTT6=
EXTT7=
EXTT8=
EXTT9=
EXTT10=
EXTT11=
PLAYORDER=
